<?xml version="1.0" encoding="UTF-8"?>
<svg width="12px" height="12px" viewBox="0 0 12 12" version="1.1" xmlns="http://www.w3.org/2000/svg" xmlns:xlink="http://www.w3.org/1999/xlink">
    <title>切片</title>
    <g id="V2.0.1--财务中台" stroke="none" stroke-width="1" fill="none" fill-rule="evenodd">
        <g id="2--流水查询" transform="translate(-1418.000000, -18.000000)" fill="#212529">
            <g id="nav" transform="translate(220.000000, 0.000000)">
                <g id="icon/功能/消息备份" transform="translate(1198.000000, 18.000000)">
                    <path d="M5.6753381,8.86462344 L1.1343527,4.28903242 C0.955215768,4.10853034 0.955215768,3.81587864 1.1343527,3.63537656 C1.22392116,3.54512552 1.34131498,3.5 1.4587088,3.5 L1.51727688,3.50376046 C1.61446096,3.51629533 1.70842451,3.56016736 1.7830649,3.63537656 L6,7.88415779 L10.2169351,3.63537656 C10.396072,3.45487448 10.6865104,3.45487448 10.8656473,3.63537656 C11.0298562,3.8008368 11.0435402,4.06053387 10.9066995,4.24170025 L10.8656473,4.28903242 L6.3246619,8.86462344 C6.25002152,8.93983264 6.15605797,8.98370467 6.05887389,8.99623954 L6.0003058,9 C5.88230038,9 5.76490656,8.95487448 5.6753381,8.86462344 Z" id="路径"></path>
                </g>
            </g>
        </g>
    </g>
</svg>