<?xml version="1.0" encoding="UTF-8"?>
<svg width="128" height="100" viewBox="0 0 16 16" version="1.1" xmlns="http://www.w3.org/2000/svg" xmlns:xlink="http://www.w3.org/1999/xlink">
  <path d="M12,0.666666667 C12.7363797,0.666666667 13.3333333,1.26362033 13.3333333,2 L13.3342198,7.5037447 C12.9317,7.22283974 12.4828221,7.00377488 12.0013601,6.86032412 L12,2 L2.66666667,2 L2.66666667,14 L6.83707803,14.0008865 C7.08585652,14.3573711 7.38313894,14.6774949 7.7193573,14.9516901 C7.82851008,15.0861319 7.94513727,15.2136576 8.06843342,15.3343997 L2.66666667,15.3333333 C1.930287,15.3333333 1.33333333,14.7363797 1.33333333,14 L1.33333333,2 C1.33333333,1.26362033 1.930287,0.666666667 2.66666667,0.666666667 L12,0.666666667 Z M10.6666667,7.33333333 C12.8758057,7.33333333 14.6666667,9.12419433 14.6666667,11.3333333 C14.6666667,13.5424723 12.8758057,15.3333333 10.6666667,15.3333333 C8.45752767,15.3333333 6.66666667,13.5424723 6.66666667,11.3333333 C6.66666667,9.12419433 8.45752767,7.33333333 10.6666667,7.33333333 Z M10.6666667,8.4 C9.0466314,8.4 7.73333333,9.71329807 7.73333333,11.3333333 C7.73333333,12.9533686 9.0466314,14.2666667 10.6666667,14.2666667 C12.2867019,14.2666667 13.6,12.9533686 13.6,11.3333333 C13.6,9.71329807 12.2867019,8.4 10.6666667,8.4 Z M10.3333333,9.2 C10.5695885,9.2 10.7648388,9.37556242 10.7957399,9.60334276 L10.8,9.66666667 L10.8,11.2 L12.3333333,11.2 C12.545963,11.2 12.7253787,11.3422056 12.7816624,11.5366985 L12.7957399,11.6033428 L12.8,11.6666667 C12.8,11.9029218 12.6244376,12.0981722 12.3966572,12.1290732 L12.3333333,12.1333333 L10.6666667,12.1333333 C10.2866835,12.1333333 9.96439388,11.8671056 9.88467546,11.4991131 L9.87137314,11.4187598 L9.86666667,11.3333333 L9.86666667,9.66666667 C9.86666667,9.40893378 10.0756005,9.2 10.3333333,9.2 Z M6,8.66666667 C6.36818983,8.66666667 6.66666667,8.9651435 6.66666667,9.33333333 C6.66666667,9.70152317 6.36818983,10 6,10 L4.66666667,10 C4.29847683,10 4,9.70152317 4,9.33333333 C4,8.9651435 4.29847683,8.66666667 4.66666667,8.66666667 L6,8.66666667 Z M8.66666667,6 C9.0348565,6 9.33333333,6.29847683 9.33333333,6.66666667 C9.33333333,7.0348565 9.0348565,7.33333333 8.66666667,7.33333333 L4.66666667,7.33333333 C4.29847683,7.33333333 4,7.0348565 4,6.66666667 C4,6.29847683 4.29847683,6 4.66666667,6 L8.66666667,6 Z M10,3.33333333 C10.3681898,3.33333333 10.6666667,3.63181017 10.6666667,4 C10.6666667,4.36818983 10.3681898,4.66666667 10,4.66666667 L4.66666667,4.66666667 C4.29847683,4.66666667 4,4.36818983 4,4 C4,3.63181017 4.29847683,3.33333333 4.66666667,3.33333333 L10,3.33333333 Z" id="形状"></path>
</svg>